#!OML:ASF H:\Dans Jumps\Project 1\Capture day 1\Session 1\subject.ASF
:FULLY-SPECIFIED
:DEGREES
284
root 0.546022 17.7169 -9.64732 20.2644 1.79745 -1.33667
lowerback 11.0314 0.577967 -1.00447
upperback 1.79007 0.758913 2.32026
thorax -4.36037 0.404153 2.87897
lowerneck -14.9022 -0.652908 -1.48869
upperneck 14.862 -0.465388 -0.486972
head 7.00339 -0.351346 0.0379302
rclavicle 3.97569e-015 -5.56597e-015
rhumerus -4.19426 -6.36541 -82.6869
rradius 34.8604
rwrist 26.6435
rhand -24.7757 -23.9745
rfingers 7.12502
rthumb 1.72818 -53.9472
lclavicle 3.97569e-015 -5.56597e-015
lhumerus -2.18457 0.616801 83.1519
lradius 22.8575
lwrist 12.2217
lhand -28.6411 -12.5246
lfingers 7.12502
lthumb -2.00512 17.4457
rfemur -23.7638 -6.20784 20.8941
rtibia 41.9211
rfoot -6.90058 -8.48074
rtoes -17.0401
lfemur -22.4797 9.636 -16.9487
ltibia 37.419
lfoot -4.92402 6.08649
ltoes -28.1332
285
root 0.554653 17.9804 -9.34624 19.3166 1.56093 -1.45265
lowerback 9.87292 0.614191 -0.864833
upperback 2.07202 0.813138 2.26373
thorax -3.42481 0.41791 2.73627
lowerneck -13.8985 -0.679035 -1.51928
upperneck 15.537 -0.518835 -0.427929
head 7.0491 -0.375912 0.0587555
rclavicle 3.57812e-015 1.19271e-015
rhumerus -4.50844 -6.41883 -83.0049
rradius 34.4994
rwrist 26.9835
rhand -24.6767 -23.7721
rfingers 7.12502
rthumb 1.82386 -53.744
lclavicle 3.57812e-015 1.19271e-015
lhumerus -2.72059 0.0791881 83.251
lradius 22.9989
lwrist 12.7603
lhand -28.6641 -12.728
lfingers 7.12502
lthumb -2.02734 17.2421
rfemur -21.6618 -6.24034 20.6258
rtibia 40.4225
rfoot -1.9871 -7.50868
rtoes -13.3113
lfemur -19.8535 9.11249 -16.4357
ltibia 35.2721
lfoot 0.0379023 4.37745
ltoes -27.0302
286
root 0.562177 18.2485 -9.05049 18.4226 1.31476 -1.56294
lowerback 8.83623 0.651748 -0.747544
upperback 2.33091 0.865195 2.21546
thorax -2.58257 0.43372 2.61919
lowerneck -13.0068 -0.695853 -1.5255
upperneck 16.241 -0.556422 -0.405831
head 7.12224 -0.3951 0.0649987
rclavicle -5.1684e-015 -1.98785e-014
rhumerus -4.86205 -6.47625 -83.2987
rradius 34.1605
rwrist 27.3119
rhand -24.6085 -23.6068
rfingers 7.12502
rthumb 1.88966 -53.5782
lclavicle -5.1684e-015 -1.98785e-014
lhumerus -3.29625 -0.356176 83.3555
lradius 23.0821
lwrist 13.2694
lhand -28.6635 -12.8765
lfingers 7.12502
lthumb -2.02668 17.0936
rfemur -19.8134 -6.05592 20.345
rtibia 39.1289
rfoot 2.81114 -6.92937
rtoes -7.81781
lfemur -17.5103 8.31212 -15.974
ltibia 33.3507
lfoot 5.54341 3.236
ltoes -24.7463
287
root 0.567851 18.517 -8.76217 17.6182 1.07854 -1.64421
lowerback 7.89796 0.679494 -0.676468
upperback 2.55515 0.899631 2.17359
thorax -1.83129 0.443191 2.53957
lowerneck -12.2495 -0.699399 -1.52879
upperneck 16.973 -0.571672 -0.396254
head 7.22718 -0.404835 0.068504
rclavicle -2.38542e-015 7.15625e-015
rhumerus -5.24274 -6.56767 -83.5778
rradius 33.8563
rwrist 27.6364
rhand -24.5574 -23.461
rfingers 7.12502
rthumb 1.93907 -53.4319
lclavicle -2.38542e-015 7.15625e-015
lhumerus -3.89829 -0.631255 83.4611
lradius 23.0906
lwrist 13.6423
lhand -28.6012 -12.9393
lfingers 7.12502
lthumb -1.96653 17.0314
rfemur -18.2892 -5.68951 20.0678
rtibia 38.1483
rfoot 7.03109 -6.65319
rtoes -1.6022
lfemur -15.5359 7.35487 -15.6195
ltibia 31.7791
lfoot 11.2235 2.73884
ltoes -21.3561
288
root 0.571299 18.7821 -8.48316 16.926 0.869772 -1.68036
lowerback 7.0403 0.689469 -0.661238
upperback 2.74129 0.906819 2.13248
thorax -1.1636 0.44053 2.49612
lowerneck -11.6256 -0.686041 -1.53236
upperneck 17.7044 -0.561827 -0.384476
head 7.35512 -0.402563 0.0747917
rclavicle 3.97569e-015 -3.97569e-015
rhumerus -5.63114 -6.72726 -83.8553
rradius 33.5858
rwrist 27.9557
rhand -24.5011 -23.3609
rfingers 7.12502
rthumb 1.99344 -53.3314
lclavicle 3.97569e-015 -3.97569e-015
lhumerus -4.5085 -0.720772 83.5582
lradius 23.0138
lwrist 13.8113
lhand -28.4715 -12.9157
lfingers 7.12502
lthumb -1.84131 17.0561
rfemur -17.1486 -5.20162 19.8082
rtibia 37.5881
rfoot 10.2836 -6.44867
rtoes 4.28786
lfemur -13.9955 6.4061 -15.4019
ltibia 30.7005
lfoot 16.4036 2.83648
ltoes -17.5112
289
root 0.57275 19.0414 -8.21479 16.3654 0.686321 -1.67118
lowerback 6.24618 0.680542 -0.69669
upperback 2.88916 0.887133 2.08692
thorax -0.569717 0.425118 2.47898
lowerneck -11.1448 -0.657121 -1.55976
upperneck 18.4113 -0.529678 -0.342515
head 7.50072 -0.388616 0.0966312
rclavicle 3.57812e-015 1.66979e-014
rhumerus -6.01233 -6.96355 -84.1405
rradius 33.352
rwrist 28.2752
rhand -24.4534 -23.2639
rfingers 7.12502
rthumb 2.03946 -53.2339
lclavicle 3.57812e-015 1.66979e-014
lhumerus -5.12272 -0.612518 83.6354
lradius 22.8742
lwrist 13.7493
lhand -28.2798 -12.823
lfingers 7.12502
lthumb -1.65613 17.1504
rfemur -16.4454 -4.65451 19.5774
rtibia 37.5282
rfoot 12.4174 -6.15823
rtoes 8.8762
lfemur -12.9464 5.64449 -15.3242
ltibia 30.2491
lfoot 20.501 3.33777
ltoes -13.5685
290
root 0.572619 19.293 -7.95816 15.9458 0.531942 -1.61731
lowerback 5.50832 0.653415 -0.772624
upperback 3.00044 0.843252 2.03256
thorax -0.0434965 0.397861 2.4765
lowerneck -10.8045 -0.615251 -1.59834
upperneck 19.0663 -0.479443 -0.282595
head 7.6549 -0.365218 0.127725
rclavicle -8.34896e-015 -6.75868e-015
rhumerus -6.35724 -7.29373 -84.4387
rradius 33.1299
rwrist 28.6096
rhand -24.3854 -23.21
rfingers 7.12502
rthumb 2.10512 -53.1794
lclavicle -8.34896e-015 -6.75868e-015
lhumerus -5.73028 -0.309941 83.6883
lradius 22.6897
lwrist 13.486
lhand -28.0501 -12.6759
lfingers 7.12502
lthumb -1.43434 17.2991
rfemur -16.2027 -4.12132 19.3786
rtibia 37.9998
rfoot 13.5527 -5.78409
rtoes 12.0301
lfemur -12.4253 5.16717 -15.3693
ltibia 30.5144
lfoot 23.158 3.95957
ltoes -10.1452
